<?xml version="1.0" standalone="no"?>
<!DOCTYPE svg PUBLIC "-//W3C//DTD SVG 20010904//EN"
 "http://www.w3.org/TR/2001/REC-SVG-20010904/DTD/svg10.dtd">
<svg version="1.0" xmlns="http://www.w3.org/2000/svg"
 width="422.000000pt" height="354.000000pt" viewBox="0 0 422.000000 354.000000"
 preserveAspectRatio="xMidYMid meet">

<g transform="translate(0.000000,354.000000) scale(0.100000,-0.100000)"
fill="#000000" stroke="none">
<path d="M1560 3419 c-312 -51 -610 -186 -1010 -457 -298 -202 -360 -246 -360
-253 0 -4 48 -10 108 -14 532 -35 739 -75 987 -194 138 -65 214 -118 314 -218
l84 -84 -6 113 c-4 62 -7 181 -7 263 l0 150 -47 31 c-68 44 -187 106 -265 139
-38 15 -68 31 -68 35 0 12 167 73 245 90 28 6 67 15 88 21 l37 10 0 189 0 190
-22 -1 c-13 -1 -48 -5 -78 -10z"/>
</g>
</svg>
